<svg width="36" height="33" viewBox="0 0 36 33" fill="none" xmlns="http://www.w3.org/2000/svg">
<path d="M35.862 32.6416C34.7805 30.4186 33.697 28.1957 32.6117 25.9728C31.8288 24.3668 31.042 22.7626 30.2515 21.1602C30.2346 21.1102 30.2177 21.0574 30.1952 21.0074C26.8267 14.0867 23.46 7.16881 20.0952 0.253698C20.0656 0.171023 20.0079 0.100984 19.9319 0.0554187C19.856 0.00985315 19.7664 -0.00844405 19.6784 0.00361975C18.5518 0.00361975 17.4252 0.00361975 16.2986 0.00361975C16.2062 -0.00456157 16.1138 0.0184913 16.0366 0.068989C15.9593 0.119487 15.9017 0.194424 15.8733 0.281484C15.2199 1.64302 14.5495 2.99622 13.9017 4.35497C13.2708 5.6739 12.6343 6.99376 11.9921 8.31454C11.9415 8.41179 11.8851 8.50904 11.8372 8.6063C10.4872 11.3849 9.13716 14.1562 7.78711 16.92C7.03605 18.4853 6.27841 20.0515 5.5142 21.6187C5.21002 22.23 4.90302 22.8385 4.60447 23.4526C3.09295 26.5517 1.5833 29.6527 0.0755356 32.7555C0.0417376 32.8249 -0.0483904 32.8944 0.0332881 33C0.17693 32.9417 0.314938 32.8889 0.467029 32.8277C3.74407 31.4524 7.1824 30.4863 10.7022 29.9518C12.2907 29.6962 13.8989 29.5739 15.4902 29.4545C17.4449 29.4017 19.3967 29.3905 21.3514 29.5239C23.4457 29.6623 25.5282 29.9408 27.5843 30.3575C30.3649 30.9236 33.0792 31.77 35.6846 32.8833C35.7747 32.9222 35.8676 33.0167 36 32.9361C35.9549 32.8388 35.9099 32.7388 35.862 32.6416ZM20.3205 13.9441L20.298 13.9635C20.298 13.9496 20.298 13.933 20.2783 13.9163L20.3205 13.9441ZM23.7539 23.5304C22.2048 23.3387 20.6557 23.2359 19.0925 23.197C16.8024 23.1459 14.5114 23.2564 12.2372 23.5276C11.871 23.5693 11.8626 23.5526 12.0147 23.2192C12.4597 22.2633 12.8596 21.2741 13.2906 20.3238C14.2144 18.2426 15.1213 16.1559 16.0366 14.0719C16.3352 13.3939 16.6675 12.7242 16.8985 12.0185C16.8985 11.9907 16.8985 11.9657 16.8985 11.9379C17.0759 11.8434 17.0844 11.635 17.1576 11.4794C17.4393 10.8792 17.6758 10.2679 18.0026 9.62884C18.1152 9.9067 18.2222 10.0957 18.3124 10.3096C18.8757 11.5794 19.4193 12.8493 20.0023 14.1136C20.0417 14.2025 20.0586 14.3275 20.1797 14.3581C20.1797 14.3803 20.1797 14.3998 20.1797 14.422C20.2713 14.7827 20.3986 15.1335 20.5599 15.4695L23.9735 23.2497C24.12 23.5637 24.1144 23.5721 23.7539 23.5304Z" fill="white"/>
</svg>
