<svg version="1.1" id="Layer_1" xmlns="http://www.w3.org/2000/svg" xmlns:xlink="http://www.w3.org/1999/xlink" x="0px" y="0px"
	 width="100%" viewBox="0 0 128 128" enable-background="new 0 0 128 128" xml:space="preserve">
<path fill="#4C6971" opacity="1.000000" stroke="none" 
	d="
M64.000000,129.000000 
	C43.666668,129.000000 23.833019,128.947327 4.000396,129.066147 
	C1.498694,129.081131 0.930376,128.499771 0.935936,125.999855 
	C1.026385,85.333397 1.026381,44.666611 0.935937,4.000143 
	C0.930377,1.500242 1.500242,0.930377 4.000143,0.935937 
	C44.666611,1.026383 85.333397,1.026383 125.999855,0.935936 
	C128.499771,0.930377 129.069626,1.500242 129.064072,4.000143 
	C128.973618,44.666611 128.973618,85.333397 129.064072,125.999855 
	C129.069626,128.499771 128.501205,129.080322 125.999626,129.066040 
	C105.500290,128.948929 85.000000,129.000000 64.000000,129.000000 
z"/>
<path fill="#FFFFFF" opacity="1.000000" stroke="none" 
	d="
M65.752708,54.170403 
	C67.184273,49.693600 70.530785,51.257446 73.698837,51.007572 
	C71.528809,57.940887 66.006004,64.572998 73.090164,71.574402 
	C75.013710,66.888771 77.130661,62.024853 79.008522,57.070316 
	C80.683815,52.650265 82.940315,49.474438 88.858246,51.469414 
	C84.882874,60.433540 80.941864,69.464195 76.858315,78.429932 
	C75.797501,80.758995 73.403778,79.766632 71.519592,80.018028 
	C69.525208,80.284119 69.223412,79.155319 68.708069,77.552147 
	C67.973526,75.267120 66.649162,73.171700 65.520164,70.880440 
	C64.464165,72.981262 63.140701,75.059074 62.371803,77.325066 
	C61.790161,79.039192 61.450790,80.365433 59.222240,80.024513 
	C57.361507,79.739861 55.147266,80.677490 54.042793,78.198441 
	C50.073395,69.288948 46.079964,60.390152 42.112587,51.525242 
	C48.129349,49.390301 50.394581,52.536911 52.050892,57.314968 
	C53.735340,62.174198 55.952244,66.848846 57.905697,71.531708 
	C64.419228,64.514717 60.104008,57.911964 57.129269,51.312836 
	C60.846878,50.636383 64.081352,50.306435 65.752708,54.170403 
z"/>
<path fill="#FFFFFF" opacity="1.000000" stroke="none" 
	d="
M99.997459,110.000000 
	C71.101463,110.000000 42.705009,110.000000 13.603838,110.000000 
	C21.355911,96.604164 28.704454,83.905640 36.439240,70.539688 
	C37.163414,73.391716 36.964806,74.925323 35.825565,76.831291 
	C29.829227,86.863258 24.126465,97.070694 18.046192,107.698967 
	C49.812664,107.698967 80.985092,107.698967 112.770653,107.698967 
	C109.301414,101.390526 105.971062,95.161377 102.471199,89.028976 
	C99.973557,84.652634 97.270088,80.392670 94.612831,76.109085 
	C93.659111,74.571648 93.927444,73.047531 94.520256,70.526321 
	C102.277161,83.863022 109.654808,96.547653 117.478973,110.000000 
	C111.319466,110.000000 105.908241,110.000000 99.997459,110.000000 
z"/>
<path fill="#FFFFFF" opacity="1.000000" stroke="none" 
	d="
M79.725067,44.400639 
	C77.831764,45.821785 77.674980,45.917786 76.450951,43.918732 
	C72.721138,37.827305 69.123505,31.654938 65.546684,25.635679 
	C61.835735,31.797073 58.025024,38.023148 54.346378,44.326290 
	C53.695347,45.441788 53.075233,46.542206 51.826115,45.855854 
	C49.979759,44.841339 51.792484,44.054569 52.283852,43.202065 
	C56.555492,35.791016 60.820435,28.376102 65.458992,20.316645 
	C70.447769,28.729959 74.995110,36.398804 79.725067,44.400639 
z"/>
</svg>